<svg width="629" height="663" viewBox="0 0 629 663" fill="none" xmlns="http://www.w3.org/2000/svg">
<path id="scrollscribble" d="M15 661C11.1259 642.921 -5.04935 622.657 6.55556 603.722C9.10426 599.564 15.7373 595.016 20.4444 593.778C27.9676 591.798 30.9359 597.761 34.6667 603.556C40.2674 612.255 44.1342 622.557 50.9444 630.389C52.5852 632.276 55.9284 635.373 58.5 635.944C65.2073 637.435 65.257 630.779 64.9444 625.778C64.1274 612.705 57.5473 601.69 57 588.556C56.5072 576.728 48.6371 554.383 67.2222 552.222C78.0178 550.967 87.7165 553.64 95.7778 561C104.131 568.626 105.306 582.234 109.444 592.333C113.568 602.396 121.448 623.612 136.333 619.444C142.266 617.783 144.152 608.699 145 603.556C147.53 588.216 145.052 567.763 136.778 554.444C127.194 539.017 115.305 524.953 108 508.111C102.924 496.408 98.9557 476.11 106.444 464.556C112.539 455.152 126.203 447.357 137.611 450.333C149.77 453.505 158.079 467.425 164.778 476.889C175.859 492.545 185.402 508.979 192.944 526.611C201.502 546.618 208.954 567.244 219.056 586.556C223.223 594.523 228.546 608.084 238 611.333C248.675 615.003 255.012 596.748 256.889 589.556C265.234 557.564 246.025 525.282 227.778 500.889C210.777 478.162 194.808 454.71 177.944 431.889C168.46 419.054 157.691 407.42 147.889 394.889C139.985 384.784 136.12 365.414 145.556 355.111C154.569 345.27 165.643 342.562 177.611 348.111C192.957 355.226 205.276 366.849 217 378.778C229.971 391.976 241.999 405.502 251.444 421.5C272.366 456.935 280.822 496.157 291.889 535.333C295.366 547.642 297.412 560.984 302.778 572.667C304.24 575.85 306.563 580.746 309.611 582.778C318.508 588.709 334.071 570.676 338.111 565.222C347.501 552.546 348.867 536.606 348.278 521.278C347.453 499.832 342.507 478.086 330.556 460C321.226 445.881 309.25 433.672 297.778 421.333C281.766 404.113 266.66 386.17 251.222 368.444C239.102 354.529 226.122 341.495 212.444 329.111C202.016 319.668 190.42 311.116 181.667 300C175.033 291.576 161.99 273.247 178.444 267C192.775 261.559 209.827 263.88 224.444 266.444C247.437 270.478 268.785 278.893 288.667 291.111C307.559 302.721 324.47 317.151 338.111 334.667C346.184 345.033 348.578 356.09 350.778 368.889C360.784 427.097 371.971 487.059 396.556 541.222C397.771 543.9 405.943 565.028 412.056 562.278C417.782 559.701 422.448 549.201 424.778 544.222C435.485 521.341 439.315 494.433 439.167 469.389C438.886 422.015 422.868 376.377 393.278 339.389C368.22 308.067 340.77 277.036 309.111 252.222C298.816 244.153 288.238 236.481 278.222 228.056C270.032 221.165 259.29 213.527 253.889 204C249.001 195.378 257.448 192.708 264.722 191.833C289.71 188.828 316.123 194.229 339.667 202.333C386.229 218.36 433.005 250.484 461.889 290.889C477.433 312.633 472 338.123 472 363.333C472 391.799 473.254 419.56 480.056 447.333C485.315 468.81 495 490.848 495 513.278C495 517.451 497.802 514.22 499.333 512.111C510.433 496.823 516.075 476.67 519.111 458.333C524.819 423.861 526.179 387.089 524.111 352.222C522.799 330.096 517.435 309.958 508.833 289.667C500.845 270.822 493.479 251.492 483.333 233.667C468.323 207.296 448.332 184.653 425.444 164.889C398.659 141.759 367.971 123.1 342.333 98.6667C338.939 95.4321 327.844 86.5406 328.556 80.6667C329.667 71.4981 372.644 83.6325 375 84.2222C439.754 100.433 501.308 126.816 550.333 173.111C559.065 181.357 570.062 191.669 574.444 203.333C577.594 211.718 574.206 221.778 572.389 230.056C564.811 264.577 561.31 297.7 565.611 333C567.264 346.561 568.532 360.438 571 373.889C571.717 377.795 573.4 381.178 576.222 384C587.78 395.557 603.465 398.623 612.056 382.056C622.052 362.776 624.793 339.568 625.889 318.222C627.676 283.412 626.655 245.637 615.778 212.222C608.85 190.94 597.383 171.546 583.611 154.056C566.817 132.727 550.888 110.722 533.889 89.5556C515.466 66.6156 496.662 42.9406 473.444 24.6111C466.033 18.7599 457.504 13.7857 450.667 7.22222C449.229 5.84248 446.282 2 450 2" stroke="black" stroke-width="3" stroke-linecap="round"/>
</svg>
